<svg width="59" height="37" viewBox="0 0 59 37" fill="none" xmlns="http://www.w3.org/2000/svg">
<path d="M39 4H20V33H39V4Z" fill="#FF5F00"/>
<path d="M22.1539 18.4974C22.1517 15.6962 22.767 12.9312 23.9531 10.4116C25.1392 7.89202 26.865 5.68391 29 3.95438C26.3557 1.80952 23.1801 0.475763 19.8361 0.105537C16.4922 -0.264688 13.1147 0.343559 10.0898 1.86076C7.06496 3.37796 4.51466 5.74291 2.73043 8.6853C0.946189 11.6277 0 15.0288 0 18.5C0 21.9712 0.946189 25.3723 2.73043 28.3147C4.51466 31.2571 7.06496 33.622 10.0898 35.1392C13.1147 36.6564 16.4922 37.2647 19.8361 36.8945C23.1801 36.5242 26.3557 35.1905 29 33.0456C26.8644 31.3156 25.1381 29.1066 23.952 26.5861C22.7659 24.0656 22.151 21.2995 22.1539 18.4974Z" fill="#EB001B"/>
<path d="M59 18.5026C58.9999 21.9736 58.021 25.3745 56.175 28.3167C54.3291 31.2589 51.6907 33.6235 48.5614 35.1403C45.4321 36.6571 41.9382 37.2649 38.479 36.8942C35.0198 36.5235 31.735 35.1892 29 33.0439C31.2075 31.3131 32.9922 29.1046 34.2194 26.5852C35.4466 24.0658 36.0843 21.3012 36.0843 18.5C36.0843 15.6988 35.4466 12.9342 34.2194 10.4148C32.9922 7.89539 31.2075 5.68693 29 3.95606C31.735 1.81078 35.0198 0.476528 38.479 0.105814C41.9382 -0.264901 45.4321 0.342885 48.5614 1.8597C51.6907 3.37651 54.3291 5.74114 56.175 8.68329C58.021 11.6255 58.9999 15.0264 59 18.4974V18.5026Z" fill="#F79E1B"/>
</svg>
